<?xml version="1.0" encoding="utf-8"?>
<!-- Generator: Adobe Illustrator 26.0.3, SVG Export Plug-In . SVG Version: 6.00 Build 0)  -->
<svg version="1.1" id="Layer_1" xmlns="http://www.w3.org/2000/svg" xmlns:xlink="http://www.w3.org/1999/xlink" x="0px" y="0px"
	 viewBox="0 0 4430 3000" style="enable-background:new 0 0 4430 3000;" xml:space="preserve">
<style type="text/css">
	.st0{fill:#E37E44;}
	.st1{fill:none;stroke:#F7100E;stroke-width:7;}
	.st2{fill:none;stroke:#183C8D;stroke-width:7;}
	.st3{fill:none;stroke:#000000;stroke-width:11;stroke-linecap:round;stroke-miterlimit:10;}
	.st4{font-family:'Verdana';}
	.st5{font-size:72px;}
</style>
<g id="SVG">
	<path class="st0" d="M3424.2,2404.44c-5.4-0.8-6.5-2-10.9-5.6c-3.5-2.2-6.6-4.8-9.5-7.8c-6-5.8-5.4-4.2-11.8-9.4
		s-13.4-10.8-13.5-19.8s-3.9-12.7-10.8-14.8c-5.2-1.6-7.7-2.7-6.1-9.4s-2.4-12.4-7.4-16.4s-9,0.3-12.8,2.6s-8.8,4.6-14,4.2
		c-2.7-0.2-5.7,0.6-7.2,2.9c-5.9,8.7-9.7,3-11.7-2.4c-2.7-7.6-7.8-11.1-15.3-12.4c-2.3-0.3-4.5-1.1-6.5-2.2
		c-11.4-8.2-24.1-15-20.4-33.3c1.7-8.5,1.1-18.5-5.8-25.4c-9.4-9.3-22.8-12.7-33.8-20.1c-5.1-3.4-13.7-4.5-20.5-7.9
		c-14.7-7.2-18.9-17.2-10.5-31.4c5.8-9.8,5.8-19.7,3.5-29.7c-3-13,3.8-26.5-2.6-39.3c-0.8-1.5,1-4.3,1.6-6.6
		c2.1-8.2,3.7-16.5,10.2-23c2.7-2.5,2.5-6.7,1.2-10.4s-1.4-4.5-0.1-6.8c5.6-9.8,7-21.2,12.1-31.1c3.5-6.9,3.3-13.5,2.6-20.3
		c-1.7-16.6-19-29.6-33.3-25.4c-8.5,2.4-12,0.4-12.2-8.7c-0.1-5.7-1.9-9.4-6.7-12.2s-6.2-5.2-9.8-6.9c-15.7-7.4-24-20.1-27.1-36.8
		c-0.1-1.3-0.5-2.6-1-3.8c-0.7-1.4-1.7-3.3-3-3.7c-10.4-3.1-20.2-10.2-32-5.9c-2.8,1-6.1,1-6.2-2.6c-0.5-15.7-13.3-26.3-16.9-40.8
		c-4-16.1-20.2-19.5-24.5-21.9s-9.9-2.5-14.8-1.9c-7.1,0.9-12.3,1.4-18.8-1.4c-9.8-4-17.9-0.4-21.9,6.4c-6,10.2-10.6,20.4-17.9,20.4
		c-4.4,0-9.2-16.6-8.6-21.7c1-8.4-6.1-13.9-14.5-12.2c-4.8,0.9-7.6,0.4-12.4-3.2c-4.8-3.6-14.6-4.7-17.5,3.9c-0.9,2.5-0.5,5.3-4,6
		s-7.4,3.8-8.7,8.5c-0.7,2.3-7,6.5-8.7,3.5c-5.4-9.4-7.5-9.8-14.8-3.2c-0.7,0.7-2.8,0.7-3.7,0.1c-6.6-4.3-14.1-7.9-19.4-13.5
		c-11-11.7-12.2-12.2-24.1-0.5c-3.1,3-14,2.4-16.5-1.6s1.5-6.6,3.9-8.9c6.1-6.1,6.9-11.5-0.5-17.5c-5.7-4.5-12.6-9.1-8-18.6
		c0.8-1.7-0.6-4.2-2.2-5.2c-9.3-5.8-15.7-18.1-29.7-13.3c-1.6,0.5-3.6,0.5-4.6-1s-0.1-3.3,1.5-4.1c5.3-2.9,8-8.6,13.6-11.5
		c7.6-3.9,7.5-9.6,0.4-14.6c-3.9-2.7-7.7-5.3-10.1-9.5c-0.9-1.7-1.2-4,0.4-5.6c1.6-1.6,3.6,0.1,5.1,1.3c3.1,2.4,5.4,7.2,9.6,6.5
		c6.7-1,11.9,0.6,17.2,4.6s9.5,1.1,12.9-2.1s2-7.9-0.7-11.7s-5.4-7.6-5.3-12.7c0-2.8-2.1-5.2-4.9-5.6c-7.4-1.4-10.2-6.7-13.6-12.7
		s-1.3-12.5-3.2-17.9s-3.1-5.7,2.2-8.3s4.9-10.5,0-14.1c-8.4-6.2-8.1-11.2,1-16.4c12.8-7.2,16.8-25,8.3-37.3
		c-1.6-2.3-3.7-3.6,0.9-5.5c9.7-4.2,10.6-9,1.8-15.4s-12.7-18.5-24.3-22.5c-3-1-4.6-5.9-8.5-7.8c-3.9-1.9-4.1-5-0.1-7.6
		s4.9-3.5,4.3-7.1c-1.6-11.6-18.6-21.8-29.4-17.6c-8.8,3.4-10,2.5-12.4-7c-2-7.7-6.4-14.3-14.1-16.8s-9.6,4.4-13.8,7.9
		s-4.7,6.1-6.2,9.9s-7.7,9.3-12,5.5c-12.2-10.8-24.2-8.2-35.7-1s-23,2.1-34.4,1.8c-3.1-0.3-5.7-2.5-6.6-5.5
		c-2.5-8.1-9.7-12.6-14-19.3c-3.1-4.9-8.7-7.4-13.8-6.1c-6.8,1.7-8.8-1.5-11.2-6.5c-4.2-9-10-15.8-21.4-16.7c-9.1-0.7-18-3.6-27-5.6
		c-6.7-1.4-8.9-6.4-9.4-12.4c-0.4-4.3-0.2-8.7-0.2-13s-1.8-10.1-6.2-13c-7.9-5.4-8.8-12.6-7-21s-0.7-11.1-10-8.7
		c-9.3,2.4-18.1,1.4-25.5-3.5c-12.1-7.9-27.8-13.4-28.2-32.1c0-2.3-1.7-5.6-3.7-6.7c-4.7-2.8-6.2-7.2-6.4-11.7
		c-0.4-8.6-5.5-12.9-12.4-16.3c-2.9-1.4-5.9-2.4-5.9-7c0-9.6-5-16.1-13.5-20.8s-18.1-3.1-26.4-8.1c-11.2-6.9-23-12.5-37.1-11.4
		c-8.1,0.6-10.2-4-7-11.7c1.4-3.4,3.3-6.6,4.6-10s1.8-8.4-2.6-9.3c-4.4-0.9-13.2-2.4-17.1,0.4c-12,8.4-23.6,7.6-36.2,3.1
		c-3.4-1.2-6.2,0.5-9.1,2.5c-8.1,5.7-2.9,13.4-3.7,20.2c-0.4,4,1.9,10.1-4.3,10.5s-16.5,5.6-19.8-4.9c-2.5-7.7-7.8-8.8-13.9-10.6
		c-12.8-3.7-27.9,2.4-38.7-9.5c-0.8-0.9-3.2-0.5-4.9-0.5c-8,0.1-9.6-3.3-7.3-10.7c4.3-13.9-1.9-27.5-2.2-41.3
		c-0.2-1.3-1-2.5-2.2-3.1c-8-3.8-12.9-9.5-18.2-17.2s-9.6-15.3-11.6-24.3c-1.2-5.6-3.9-8-10.1-10.1c-12-4.1-25.5-4.3-36-13.7
		c-3.5-3.2-9.3-7-14.7-7.2c-10.1-0.4-14.8-6.6-18.4-14.4c-2-4.5-5.4-8.3-9.7-10.9c-8.8-5.5-12.4-17-10.3-27.1
		c-3.7-3-7.1-6.4-9.9-10.3c-4.5,5-8.7,8.8-15.1-0.9c-1.1-1.3-2.8-2-4.5-2c-5.7-0.1-9.4-3.5-13.8-6.7c-8.8-6.5-18-14.6-29-14.5
		c-9.3,0.1-19.2,4-27.8,8.4c-12.1,6.2-16.8,6.2-22.7-6c-3.3-6.8-8.2-12.1-12.6-17.9c-6.7-8.9-16.8-8.7-23.1-0.1
		c-1.8,2.4-3,4.1-6.3,1.8c-8.1-5.7-17.1-7.6-27.1-5.9c-5.9,0.9-12,0.8-15.7-5.8c-1.4-2.6-4.7-3.7-7.9-2.9
		c-5.9,1.4-12.3-0.4-17.8,1.2c-7.4,2-13.5-3.4-20.2-1.8c-10.3,2.3-14.5,0.1-16.8-10.1c-1.3-5.9-3.1-11.8-7.1-16.3
		c-10.9-12.3-20.1-24.4-14.7-42.7c2.3-7.5-3.7-10.6-10.9-6.8c-1.7,0.9-2.8,2.7-5.3,1.8c-10.9-4.2-22.5-7.2-31.6-14.7
		c-14-11.6-30-14.3-47.4-13c-1.4-0.3-2.1,0.2-2,1.7c-2.6,13.6-9.2,24.5-21.3,31.8c-2,1.3-3.5,3.1-4.4,5.3
		c-3.2,8.3-9.8,12.3-17.8,14.6c-6.2,1.7-7.7,5.6-5.7,11.4c1.3,3.1,2.2,6.2,2.9,9.5c0.6,3.7,0,8.8-4.5,8.3
		c-10.8-1.1-18.2,4.2-25.6,10.6c-2.6,2.2-6.1,2.3-9.6,2.3s-7.3-2.7-10.7-0.8c-10.7,5.8-21.7,0.9-31.3-1.2s-14,0-17.4,8.2
		c-1.5,3.5-4.2,6.8-8.4,4.9c-4.2-1.9-1-5.4,0.2-8.2c2.8-6.4-0.2-11.9-4-16.5s-8.3-2.7-12.5,0.1c-4.2,2.8-6.7,2.3-9.5,0.2
		c-5.3-4.1-9.6-2.3-14.5,0.9s-8.3,3.8-9.9-2.8c-2.6-11.3-10.8-17.9-20.4-23c-13.3-7.1-13.8-7.7-11.1-22.4c0.9-4.5,1.1-9.2,2.2-13.7
		s2.1-12.1-2.9-15.6s-10.8-1-15,1.9c-7.3,5.2-8.2,0.7-9.1-4.9c-0.2-1.3-0.1-2.7-0.2-4c-0.7-4.8-3.3-7.8-8.2-8.9s-7.1,2.6-8.7,6.4
		s-2.4,6.2-3.6,9.3s-3.4,4.4-6.2,2.3c-6-4.5-12.5-7.8-16.3-15.4s-3.9-19.2-10.8-25.2s-21.8-0.3-30.9-8.7c-2.1-2-5.7-0.3-8.5,1
		c-9.2,4.4-15.2,2.3-17.7-7.3c-1.8-6.6-5.3-12.1-8.8-17.7c-11.3-18.3-21.6-37-26.8-58.1c-2.3-9.3-13.5-1.7-25.5-1.7l-48.3-25.7
		c-8.2-4.3-13.8-8.9-18.7-15.9s-8.8-12.4-17.6-14.9c-5.3-1.5-12.5-4.9-11.6-13.8c0.4-3.1-2.5-5.4-4.8-7.2c-4.8-4.2-8.8-9.1-12-14.6
		c-2.4-4.1-5.3-8-9.9-9.5s-7.5-5.2-9.2-10.5c-3.6-11.2-12.4-18.4-20.5-16.5s-9.5-1.2-11.3-8.1c-2.3-8.8-6.8-16.9-9.8-25.7
		c-3-8.8-27.8-16.7-36.8-12.8c-4.2,1.8-8.1,3.2-12.2,0.6s-8.5-5-13.9-4.8s-3.8-2.7-2.2-5.3c4.7-7.7,4.9-16.1-1.2-22.2
		s-3.6-15.7-10.3-21c-0.5-0.4-1-1-1.6-1.1c-8.4-0.7-7-8.5-9.7-13.3s1-5.9,3.6-6.9c4.1-1.5,2.4,2.7,3.3,4.4
		c3.3,6.3,16.5,13.6,21.4,11.9c10.1-3.6,16.6-15.8,13.6-25.5c-3.9-13.1-7.4-26.3-9.3-39.9c-0.1-1.4-1.4-2.4-2.7-2.2
		c-0.2,0-0.4,0.1-0.6,0.1c-1.5,0.6-2.9,1.3-4.3,2.1c-0.8,0.4-1.3,1.2-1.4,2.1c-0.1,1-0.1,2.1,0.1,3.1c-1.3,1.8-1.2,4.3,0.3,6
		c2.3,9.7,4.2,19.5,6.9,29.1c1.4,5.5,2,10.6-4.2,12.4s-8.1-2.5-9.2-7.8c-0.7-3.2-2.3-6.5-6.1-7.3c-6-1.2-11.7-0.8-16.5,4.2
		s-8.5,10.6-5.7,16.9s1.8,17.4,12.8,19.6c1,0.2,2.3,2.6,2.3,4c0,4.8,2.6,8,5.7,11.2c5.2,5.5,7.3,10.9,1.8,18.4s-2,15.6,5.5,16.4
		c9.3,1.1,16.6,5.8,24.1,10.6c4.6,2.9,9.1,3.2,12.3-1.6c3.2-4.8,5.7-4.8,10.1-3.1c7.5,2.8,14.9,3.9,16.5,15
		c1.1,7.5,7.2,14.2,9.3,22.5c1.6,5.9,7.4,13,16.9,9.5c6.1-2.1,9.7,2,11.7,6.7c3.8,8.4,6.1,17.5,17.3,19.5c2.2,0.4,3.8,4.4,5.7,6.7
		c1.9,2.3,4.6,7.7,8,10.1c5.2,3.8,6.3,8.5,4.8,14c-1.9,7,1.2,8.7,7.4,10.9c10.6,3.6,22.2,6,27.9,18.5c3.3,7.1,10.9,10.7,18.6,14.7
		s20.5,7.5,26.8,18.3s27.1,13.8,36.8,7.2c3.5-2.4,3.8-1.2,5.2,2.1c4.8,10.9,10.3,21.4,15.2,32.3c5.7,12.5,16.1,22.4,20,35.5
		c3.2,10.3,10,16.1,18.5,21c3.9,2.3,8,2.8,10.9-0.8c5.6-6.9,9.9-4.4,14.3,1.2s7.4,7.2,13.1,1.9s5.8,0.8,6.2,3.7
		c2.5,17.4,13.6,27.8,27.3,37.1c7.4,5.1,12.5,5,17.4-2.2c3.5-5.1,6.3-4.1,8.1,1.1c2.5,7.1,7.1,9.4,13.9,7s6.7,0.7,6.6,5.3
		c-0.1,4.6,0.2,6.8-0.4,10c-3.7,17.6-4.4,16.4,14.4,25.9c8.9,4.5,15.9,10.1,18.7,20.5c2.8,10.4,10.5,14,20.8,9.1
		c7.3-3.6,14.5-0.1,21.3,0.8s-1.7,5.6-0.4,8.8c0.2,0.6,0.4,1.3,0.6,1.9c4.1,9.8,15.4,14.4,25.1,10.3c2.4-1,4.6-2.5,6.5-4.5
		c1.5-1.6,2.4-4.8,4.9-4.5c14.1,1.6,27.9-0.2,42-1.3c11.4-0.9,20.6-2.6,28.9-9.5c4.1-3.4,7.7-5.1,12.5-1.8c4.8,3.3,8.7,3.5,10.7-0.5
		c3.7-7.5,8.4-15.9,4.5-24.5c-2.3-5.1-1.2-6.6,3-9.1c15.3-9.2,23.6-25.4,36.6-37c1.1-1.3,1.8-2.8,1.9-4.5c1.2-8.7,7.2-10.1,13.8-8.3
		s15.1,4.5,21.4,8.6c11.7,7.5,22.5,16.3,36.6,18.9c2.9,0.5,6,0.8,6.3,5c0.9,14.3,8.4,25.4,17.4,35.9c4.2,4.9,6.8,10.4,6.8,17.2
		c0,8.9,14.3,22.3,22.4,19.9c10.5-3.1,20.8-1,31.2-1.8c7-0.5,13.8-0.7,19.3,5.3c2.7,2.9,6.6,1.9,10.4,1.4
		c11.7-1.4,23.3-1.7,32.3,8.2c4.3,4.6,8.7,2.6,12.2-1c7.6-8.1,7.5-8.3,14.6,0c1.9,2.2,3.5,4.6,4.8,7.2c5.2,10.3,13.4,17.3,23.3,22.8
		c2.4,1.3,4.4,1.6,6.2-0.4c5.2-5.9,12.1-7.9,19.1-11c11.6-5,20.7-4.2,30.5,2.8c2.7,1.9,5.6,3.5,7.2,6.6c1.6,3.1,5.8,5.7,10.6,6.1
		c10.1,0.8,12.8,3.9,13.8,14.3c0.6,6,1.4,12.1,4.8,17.2c3.4,5.1,6.1,6.6,10,0.9c0.8-1.1,1.5-4.2,3.1-1.5c4.6,7.8,14.6,9.7,18.3,19.1
		c2.7,6.8,8.8,13.1,16.6,14.9c16.5,3.9,29.2,16.9,46.4,18.9c3,0.3,4.3,3.9,6.5,5.9c14.4,13.2,16.3,36.7,36.6,45.1
		c0.8,0.6,1.3,1.5,1.5,2.5c2.1,10.7,4.9,21.7,1.9,32.3c-3.9,14.2,1.6,23.3,16.6,24.1c3.8,0.2,7.2,0.8,9.8,3.8
		c5.1,6.1,10.9,8.2,18.6,4.9c5.3-2.3,10.4,1,15.6,1.7s2.8,5.4,4.1,8.2c0.5,1.3,1.2,2.4,2.2,3.3c10.6,8.1,22.5,6.9,34.1,3.1
		c8.9-2.9,10.4-11.3,10.3-19.6c0-4.3,1.3-6.4,6-7.4c10.6-2.1,22.5,1.7,31.7-7.1c0.5-0.4,2.9,0.1,3.5,0.9c0.6,0.8-0.6,2.3-1.5,3.2
		c-6.2,6.7-4.6,10.8,2.5,16.8s14.1,9.2,23.2,8.4c2.7-0.3,5.1,0.5,7.7,1.5c13.8,5.1,26,14.1,41.5,15.1c6.5,0.4,11.7,6.7,10.6,12.4
		c-1.6,8.4,2.6,10.9,8.3,13.4c6.4,2.6,10.5,8.8,10.6,15.7c0.3,5.3,2.2,8.6,6.5,11.3c1.8,1.2,4.1,3.6,4.1,5.4
		c-0.1,15.8,10.3,23.7,22.2,30.6l0.7,0.7c8.2,3.5,13.7,11.8,24.7,10.6c5.3-0.6,13.6,1,15.1,10.9c0.7,4.4,1.3,11.3,6.6,13.7
		c7.6,3.5,8.4,9.3,8.4,16.4c0,20,14.2,32.8,34.5,31.6c17-1.1,25.2,5.4,27.5,22.6c0.7,4.7,2,8.7,6.3,10.4s7.6-1.5,10.2-4.6
		c2.6-3.1,3.4-4.7,6.2-1.6c2.8,3.1,8.8,8.2,10.3,13.2c3.6,11.7,12.7,14.9,22.5,17c5.7,1.3,11.8,0.1,17.2,3.2c1.8,1,3.9-0.2,5.6-1.4
		c12.5-9.1,25.3-11.4,38.5-1.4c2,1.5,4.9,1.9,6.7,0.9c7.6-4.5,18.1-5.7,20.4-16.8c0.8-3.7,3-7.9,6.9-7s5.4,4.7,3.9,9.1
		c-1.5,4.4-1.3,6.1,1.9,8c8,4.8,16,9.8,25.8,4.4c2.4-1.3,5.1-2.1,7.4,0c2.3,2.1,2.3,5.2,1.3,8.3c-4,13.3-3.3,13.9,7.1,22
		c8.2,6.5,17.4,12,23.4,20.9c1.4,2,4.9,3.5,1.1,6.2c-8.3,5.9-3.5,11.8,0.3,17c6.6,9.1,7.1,18.9-1.8,24.1c-15.1,9-16,25.9-24,38.7
		c-2.6,4.2-0.3,10.5,2.3,15.1s5.5,4.5,9.4,2.1c1.4-0.9,2.7-0.1,2.8,1.5c0,6.6,5.5,11.6,6,17.8s3.9,10,10.1,11.7
		c2.3,0.6,5.9,0.8,5.4,4.5s-4.2,2.5-6.4,3.5c-3.9,1.8-6.4-0.6-8.7-3c-5.4-5.8-12.3-6.1-19.4-5.7c-3.9,0.2-7.2,2.2-6.4,6
		c1.4,7,0.2,14.5,5.3,20.7c8.1,10.1,6.7,14.1-5.7,19.7c-8.1,3.7-9.7,8-5.6,15.7c6,11.3,7.5,12.3,20.2,8.5c8.2-2.4,12.3,4.3,17.4,7.4
		c5.1,3.1-1.2,6.9-3,10.2c-5.1,9.2-1.7,16,8.4,16.7c1.8,0.1,4.3-1.8,5.4,0.4c1.1,2.2-1.4,4.2-2.7,6s-3.5,3.1-4.8,5
		c-5,6.7-3.7,13.7,4.1,17.2s7.1,8.2,8.2,13.7c0.8,3.3-0.9,8.6,4,8.9s10.7-2,11.6-7.5c1.1-7.2,6.5-10.3,10.6-15s6.7-3.9,9.1,0.6
		c5.2,9.6,17.8,10.5,23.3,19.8c0.6,1,3.5,1.6,4.6,1c7.9-4.8,10.3-0.8,11.1,6.5s6,6.8,10.4,7.2s6.3-3.9,6.6-7.4
		c0.6-6.5,2.9-13.8,8-15.2c8.4-2.2,4-13.1,14-12.9c11.6,0.1,19.9-4.1,20.9,7c0.2,2.3,1.4,10.1,2.6,11.9c4.6,6.5,8.3,13.2,9.8,21.1
		c0.6,2.9,3.4,4.9,6.1,3.8c6.4-2.6,14.2-5.2,16.3-11.9s8.8-13.3,11.9-20.6c1.7-4,6.4-6.4,10.7-2.3c4.3,4.1,6.6,2,10.2,1
		c15.6-4.4,30.5,0.7,38.3,12.6c7.8,11.9,16.2,27.2,18.6,43.2c2.1,13.8,3.9,14.7,17.4,11.3s26.1,2.3,28.9,15.5s9.9,20.6,20.1,26.9
		c3.1,2,5.9,4.4,9.2,6c9.5,4.5,11.7,12,9.3,21.5c-0.9,3.4-1.4,6.5,1.1,9.3s21.7,4.2,25.5,1.6c6.2-4.1,12.6-1.7,16,4.5
		s4.3,14.3,1.4,22.6s-7.4,12.8-7.9,19.7s-9.8,10.6-6,18s1.9,12.5-4,17.4c-1.5,1.3-2.6,3.1-3.1,5c-4.7,18.7-4.4,37.6-1.7,56.6
		c1.7,11.9,3.5,23.5-4.4,34.6c-5.4,7.6-1.8,24.1,4.3,31.6s12.7,9.5,19.7,13.1c11.9,6.1,26.3,7.8,34.7,20c0.5,0.6,2.6,0.5,3.8,0.1
		c5.9-1.7,8.6,2,8.7,6.6c0.2,8.6,3.7,16.8,1,25.7c-1.4,4.8-2.6,12.1,3.1,14.5c12.4,5.1,19.9,18.1,34,20c3.5,0.4,5.2,2.9,5.7,6.1
		l11.2,14.1c3.1,1.5,7.6,5.7,10.5,0.5c5.7-10.1,17.6-8.1,25.4-13.9c1-0.8,2.8-1,3.6,0.4c0.2,0.9-0.1,1.9-0.7,2.6
		c-6.3,6.4-0.9,9.8,3.4,13.6c6,5.4,18,6.4,14.6,19.1c-0.2,0.7,0.6,2,1.3,2.6c9.6,8.6,17.3,19.6,29.2,25.2
		c5.5,2.6,13.8,13.3,17.9,21.5c1.5,2.9,6.1,4.8,8.6,2.6l6.2-5.8c2.4-2.1,2-7.2-0.6-8.9S3427,2404.94,3424.2,2404.44z"/>
</g>
<g id="Dot">
	<circle class="st1" cx="2444.8" cy="1362.84" r="25">
	
		<animate  accumulate="none" additive="replace" attributeName="r" begin="0s" calcMode="spline" dur="0.9615384615384615s" fill="remove" keySplines="0 0.2 0.8 1" keyTimes="0;1" repeatCount="indefinite" restart="always" style="animation-play-state: running; animation-delay: 0s;" values="0;30">
		</animate>
	
		<animate  accumulate="none" additive="replace" attributeName="opacity" begin="0s" calcMode="spline" dur="0.9615384615384615s" fill="remove" keySplines="0.2 0 0.8 1" keyTimes="0;1" repeatCount="indefinite" restart="always" style="animation-play-state: running; animation-delay: 0s;" values="3;0">
		</animate>
	</circle>
	<circle class="st2" cx="2444.8" cy="1362.84" r="25">
	
		<animate  accumulate="none" additive="replace" attributeName="r" begin="-0.4807692307692307s" calcMode="spline" dur="0.9615384615384615s" fill="remove" keySplines="0 0.2 0.8 1" keyTimes="0;1" repeatCount="indefinite" restart="always" style="animation-play-state: running; animation-delay: 0s;" values="0;30">
		</animate>
	
		<animate  accumulate="none" additive="replace" attributeName="opacity" begin="-0.4807692307692307s" calcMode="spline" dur="0.9615384615384615s" fill="remove" keySplines="0.2 0 0.8 1" keyTimes="0;1" repeatCount="indefinite" restart="always" style="animation-play-state: running; animation-delay: 0s;" values="3;0">
		</animate>
	</circle>
	<circle class="st1" cx="2803.8" cy="1681.04" r="25">
	
		<animate  accumulate="none" additive="replace" attributeName="r" begin="0s" calcMode="spline" dur="0.9615384615384615s" fill="remove" keySplines="0 0.2 0.8 1" keyTimes="0;1" repeatCount="indefinite" restart="always" style="animation-play-state: running; animation-delay: 0s;" values="0;30">
		</animate>
	
		<animate  accumulate="none" additive="replace" attributeName="opacity" begin="0s" calcMode="spline" dur="0.9615384615384615s" fill="remove" keySplines="0.2 0 0.8 1" keyTimes="0;1" repeatCount="indefinite" restart="always" style="animation-play-state: running; animation-delay: 0s;" values="3;0">
		</animate>
	</circle>
	<circle class="st2" cx="2803.8" cy="1681.04" r="25">
	
		<animate  accumulate="none" additive="replace" attributeName="r" begin="-0.4807692307692307s" calcMode="spline" dur="0.9615384615384615s" fill="remove" keySplines="0 0.2 0.8 1" keyTimes="0;1" repeatCount="indefinite" restart="always" style="animation-play-state: running; animation-delay: 0s;" values="0;30">
		</animate>
	
		<animate  accumulate="none" additive="replace" attributeName="opacity" begin="-0.4807692307692307s" calcMode="spline" dur="0.9615384615384615s" fill="remove" keySplines="0.2 0 0.8 1" keyTimes="0;1" repeatCount="indefinite" restart="always" style="animation-play-state: running; animation-delay: 0s;" values="3;0">
		</animate>
	</circle>
	<circle class="st1" cx="1623.8" cy="1004.64" r="25">
	
		<animate  accumulate="none" additive="replace" attributeName="r" begin="0s" calcMode="spline" dur="0.9615384615384615s" fill="remove" keySplines="0 0.2 0.8 1" keyTimes="0;1" repeatCount="indefinite" restart="always" style="animation-play-state: running; animation-delay: 0s;" values="0;30">
		</animate>
	
		<animate  accumulate="none" additive="replace" attributeName="opacity" begin="0s" calcMode="spline" dur="0.9615384615384615s" fill="remove" keySplines="0.2 0 0.8 1" keyTimes="0;1" repeatCount="indefinite" restart="always" style="animation-play-state: running; animation-delay: 0s;" values="3;0">
		</animate>
	</circle>
	<circle class="st2" cx="1623.8" cy="1004.64" r="25">
	
		<animate  accumulate="none" additive="replace" attributeName="r" begin="-0.4807692307692307s" calcMode="spline" dur="0.9615384615384615s" fill="remove" keySplines="0 0.2 0.8 1" keyTimes="0;1" repeatCount="indefinite" restart="always" style="animation-play-state: running; animation-delay: 0s;" values="0;30">
		</animate>
	
		<animate  accumulate="none" additive="replace" attributeName="opacity" begin="-0.4807692307692307s" calcMode="spline" dur="0.9615384615384615s" fill="remove" keySplines="0.2 0 0.8 1" keyTimes="0;1" repeatCount="indefinite" restart="always" style="animation-play-state: running; animation-delay: 0s;" values="3;0">
		</animate>
	</circle>
	<circle class="st1" cx="3261.3" cy="2263.44" r="25">
	
		<animate  accumulate="none" additive="replace" attributeName="r" begin="0s" calcMode="spline" dur="0.9615384615384615s" fill="remove" keySplines="0 0.2 0.8 1" keyTimes="0;1" repeatCount="indefinite" restart="always" style="animation-play-state: running; animation-delay: 0s;" values="0;30">
		</animate>
	
		<animate  accumulate="none" additive="replace" attributeName="opacity" begin="0s" calcMode="spline" dur="0.9615384615384615s" fill="remove" keySplines="0.2 0 0.8 1" keyTimes="0;1" repeatCount="indefinite" restart="always" style="animation-play-state: running; animation-delay: 0s;" values="3;0">
		</animate>
	</circle>
	<circle class="st2" cx="3261.3" cy="2263.44" r="25">
	
		<animate  accumulate="none" additive="replace" attributeName="r" begin="-0.4807692307692307s" calcMode="spline" dur="0.9615384615384615s" fill="remove" keySplines="0 0.2 0.8 1" keyTimes="0;1" repeatCount="indefinite" restart="always" style="animation-play-state: running; animation-delay: 0s;" values="0;30">
		</animate>
	
		<animate  accumulate="none" additive="replace" attributeName="opacity" begin="-0.4807692307692307s" calcMode="spline" dur="0.9615384615384615s" fill="remove" keySplines="0.2 0 0.8 1" keyTimes="0;1" repeatCount="indefinite" restart="always" style="animation-play-state: running; animation-delay: 0s;" values="3;0">
		</animate>
	</circle>
	<circle class="st1" cx="1181.8" cy="773.94" r="25">
	
		<animate  accumulate="none" additive="replace" attributeName="r" begin="0s" calcMode="spline" dur="0.9615384615384615s" fill="remove" keySplines="0 0.2 0.8 1" keyTimes="0;1" repeatCount="indefinite" restart="always" style="animation-play-state: running; animation-delay: 0s;" values="0;30">
		</animate>
	
		<animate  accumulate="none" additive="replace" attributeName="opacity" begin="0s" calcMode="spline" dur="0.9615384615384615s" fill="remove" keySplines="0.2 0 0.8 1" keyTimes="0;1" repeatCount="indefinite" restart="always" style="animation-play-state: running; animation-delay: 0s;" values="3;0">
		</animate>
	</circle>
	<circle class="st2" cx="1181.8" cy="773.94" r="25">
	
		<animate  accumulate="none" additive="replace" attributeName="r" begin="-0.4807692307692307s" calcMode="spline" dur="0.9615384615384615s" fill="remove" keySplines="0 0.2 0.8 1" keyTimes="0;1" repeatCount="indefinite" restart="always" style="animation-play-state: running; animation-delay: 0s;" values="0;30">
		</animate>
	
		<animate  accumulate="none" additive="replace" attributeName="opacity" begin="-0.4807692307692307s" calcMode="spline" dur="0.9615384615384615s" fill="remove" keySplines="0.2 0 0.8 1" keyTimes="0;1" repeatCount="indefinite" restart="always" style="animation-play-state: running; animation-delay: 0s;" values="3;0">
		</animate>
	</circle>
</g>
<g>
	<g>
		<line class="st3" x1="186.9" y1="497.14" x2="186.9" y2="614.14"/>
		<g>
			<path d="M151.8,500.54l30.3-52.7c2.1-3.7,7.4-3.7,9.5,0l30.4,52.7c2.1,3.6-0.5,8.2-4.7,8.2h-60.8
				C152.3,508.74,149.7,504.24,151.8,500.54z"/>
		</g>
	</g>
</g>
<text transform="matrix(1 0 0 1 258.3769 588.978)" class="st4 st5">Imphal, Manipur</text>
<text transform="matrix(1 0 0 1 1261.6401 752.4116)" class="st4 st5">Thamlapokpi, Pallel</text>
<text transform="matrix(1 0 0 1 1507.2144 1130.2972)" class="st4 st5">Saivom</text>
<text transform="matrix(1 0 0 1 2521.314 1343.792)" class="st4 st5">Khongkhang</text>
<text transform="matrix(1 0 0 1 2890.6599 1702.4631)" class="st4 st5">Lokchao</text>
<text transform="matrix(1 0 0 1 3324.054 2255.4143)" class="st4 st5">Moreh</text>
<g>
	<g>
		<line class="st3" x1="4244.1" y1="2503.54" x2="4244.1" y2="2386.54"/>
		<g>
			<path d="M4279.1,2500.14l-30.3,52.7c-2.1,3.7-7.4,3.7-9.5,0l-30.4-52.7c-2.1-3.6,0.5-8.2,4.7-8.2h60.8
				C4278.6,2491.94,4281.2,2496.54,4279.1,2500.14z"/>
		</g>
	</g>
</g>
<text transform="matrix(1 0 0 1 3520.4182 2454.9736)" class="st4 st5">Myanmar (Burma)</text>
</svg>
