<?xml version="1.0" encoding="utf-8"?>
<!-- Generator: Adobe Illustrator 25.0.1, SVG Export Plug-In . SVG Version: 6.00 Build 0)  -->
<svg version="1.1" id="Layer_1"
	xmlns="http://www.w3.org/2000/svg"
	xmlns:xlink="http://www.w3.org/1999/xlink" x="0px" y="0px" viewBox="0 0 4814 3000" style="enable-background:new 0 0 4814 3000;" xml:space="preserve">
	<style type="text/css">
	.st0{fill:#29526E;}
	.st1{fill:#FFFFFF;stroke:#000000;stroke-width:10;stroke-miterlimit:10;}
	.st2{display:none;fill:#FFFFFF;stroke:#000000;stroke-width:10;stroke-miterlimit:10;}
	.st3{fill:none;stroke:#000000;stroke-width:11;stroke-linecap:round;stroke-miterlimit:10;}
	.st4{font-family:'Verdana';}
	.st5{font-size:72px;}
	</style>
	<g id="SVG">
		<path class="st0" d="M3806.4,1817c-12.2,3.9-16.1,4.9-28.2,9.4c-7.3,2.7-14.5,6-21.9,8.6c-3.9,1.3-4.6,3.6-4.5,7.1s0.3,4.9-0.6,6.7
		c-1.8,3.6-4.7,6.9-9.2,6.6s-6.5-3.4-7.7-7.1s-2.4-6-5.5-7.2c-6.6-2.7-9.5-8.1-10.5-14.5c-0.6-3.7-2.7-4.8-5.7-5.7l-23.9-6.8
		c-3.2-0.8-6.3-2.3-8.9-4.3c-1.6-1.5-3.5-3.2-6-3.2c-20.3,0.6-35.1-11.4-50.5-22.2c-2.8-2-6.2-3.3-9.2-5.2
		c-8.5-5.5-14-13.8-18.6-22.4c-2.1-3.8-0.9-9.4-1.2-14.8c-5.5,3.8-11.7,1.3-17,2.4c-8.7,1.9-17.4,0.3-26.3,2.9
		c-6.7,1.9-13.6,4.4-20.5,5.9s-10.1,2.1-12.9,8s-8.3,6.6-14.3,4.2s-14.7-5.1-16.2-14.6c-0.5-3.1-3-3.9-6.2-1.3
		c-8.5,7-21.5,6.9-30.6,0.3s-19.5-7.4-29.8-1.7c-7.1,3.8-19.4,2-24.3-3.3s-3.5-10.4-2.6-15.5s0.6-10.4,0.9-15.6
		c0.2-3.2-0.4-5.9-3.7-7.2c-10.6-4.3-13.9-14.5-18.8-23.3c-0.4-1.2-1-2.3-1.7-3.3c-1.1-1.1-2.1-3.2-4-2.1s-0.9,2.7-0.6,4.1
		c1.8,9.6,2.6,19.4,7.1,28.3s-2.5,14.3-4.7,21.2c-3.1,10.1-10.9,16.4-18.8,22.7c-3.9,3.2-8.7,2.8-13.1,3.2c-5.4,0.4-10.7,1.1-16,2.3
		c-6.8,1.7-13.3,3.7-20.8,0.8c-5.2-2-10.5,3-15.6,4.8s-12.7,2.2-19.1,2.3c-3.5,0-6.7,0-8.3,3.9c-0.2,0.4-0.6,0.6-0.9,0.9
		s-24.5,7.4-25.8,6.7c-5.2-2.8-10.3,0.1-15.4,0c-2.2,0-2,1.3-1.1,3c3.9,7.9,3.6,10.3-4.4,14.3c-12.1,6-16.7,17.6-20.2,28.8
		c-2.1,7.3-5.7,14.1-10.6,19.9c-3.3,3.9-6.6,3.5-10.4,0.8c-6.7-4.8-9.2-4.1-12,3.4c-1.9,4.9-5.1,6.4-10.1,6.6
		c-7.4,0.2-15.1-2.1-22.1,2.2c-1.7,1-3.6,1.6-3.1,4s2.6,1.8,4.6,1.6c14.1-1.1,23.6,5.8,26.6,19.4c0.6,2.9,3,3.9,4.4,5.9
		s3.8,3.7,2.9,5.9c-4.2,11.3-3.4,25.2-16.2,32.3c-3.4,1.9-5.2,4.9-1.3,8.5c1.7,1.5,1.2,3.2,0.1,5.1c-5.2,9.2-12.1,15.8-23.2,16.9
		c-2.7,0.2-3,1-1.8,3.5s5,4.4,8.2,4.9s7.2,2.8,7.7,6.9s-0.6,7.8-4.6,9.5s-2.2,2.2-1,4.2c3.2,5.3,6,11,9.3,16.3s9,6.8,16.6,3
		c9.7-4.8,12.8-3.2,19.6,6c3,4,2.1,7.8-2.2,10c-6.8,3.4-12.6,7.8-16.4,14.6c-1.9,3.3-5.4,4.1-8.8,1.7c-3.5-2.5-7.7-3.7-12-3.4
		c-5.8,0.1-11-5.6-12-10.5c-1.6-7.6-6.9-11.4-11.7-17.7c0.2,5.7-1.8,9.1-6.1,11.2c-2.1,1-2,3-1.8,4.9c0.3,4.1-0.9,7.9-2,11.7
		c-1.2,4.7-6,7.5-10.7,6.3c-1.4-0.4-2.6-1-3.7-2c-3.3-2.6-5.9-6.1-7.4-10c-0.6-1.6,0.7-5.1-3.1-3.4s-5.2,2.3-3.7,6
		c0.7,2,1.5,3.9,2.4,5.8c2.6,4.6,0.6,7.7-3.5,9.6c-3.6,1.6-7.4,3-11.2,4c-7.2,2-16.8-3.9-18.6-11.3c-0.4-1.8,0.7-3.1,1.2-4.7
		c1.6-5.8,3.4-12.8-0.7-17.3s-10-12.3-19.7-8.6c-4.1,1.5-9,1.5-13.6,1.6s-5.3,1.9-7.3,4.1c-4,4.3-8.3,6.5-13.9,3.1
		c-1.9-1.2-3.5-0.7-5.1,0.8c-8.3,7.3-18.1,7.4-27.8,4.6c-5.7-1.7-9.9,2.2-15,1.8c-1.9-0.1-1.6,2.7-1.5,4.3
		c0.8,8.8-1.5,17.5-1.3,26.3c0.1,4.2-2.1,6.5-5.8,7.9l-15.1,5.9c-2,0.7-3.7,1.9-2.9,4c1.7,4.5-0.6,7.7-3,10.8
		c-2.4,3.1-1.5,3.6-0.5,6.1c2.1,5.4,3.2,11.2,5.4,16.6c2.2,5.4-0.7,7.8-5,9.3c-6.4,2.3-10.9,5.3-15.2,11.8c-4.5,6.5-6.9,14.3-7,22.2
		c-0.1,0.5,0,1-0.2,1.3c-4.4,4.8-3.7,7.6,3,9c2.4,0.5,2.3,3.7,2.3,6c-0.1,15.5,7.5,27.7,16.8,39c4.2,5,8.7,9.1,9.9,16.1
		c1.2,7,6.7,9.4,10.8,13.6c7.1,7.1,6.4,14.6-2.8,18.8c-4.2,1.9-4.8,4.5-6,8.2s-2,11.2-8,14.1c-3.1,1.5-5.9,1.7-8.9-0.2
		c-6.1-4-8.6-3.5-11.7,2.7c-1.7,3.2-3.8,4.1-7.1,3.8c-3.3-0.3-4.6,0.8-6.3,4.1c-3.6,6.8-12.4,10.5-12.7,19.7
		c-9.3,6.1-19.7,13.2-30.3,11.7c-8.3-1.2-17.3-4.5-25.6-7.7c-3.4-1.4-5.4-5.8-9.5-6.7c-1.9,14.3-15.3,19.9-27.3,12.1
		c-3.4-2.1-8-2.3-12.1-3.2c-6.2-1.4-9.4-5-9-11.6c0.1-1.5-0.1-2.9-0.5-4.3c-2.1-7.1,0.5-11.9,7.6-12.7c4.5-0.6,4.2-1.6,2.7-5.5
		c-1.3-4.1-4-7.6-7.6-9.9c-7-4.8-7.9-14.6-2.9-22.4c2.9-4.5,2.1-6.5-3-7.8c-2.2-0.6-4.9-0.9-6.4-2.3c-4.3-3.9-8.9-3.1-13.5-1.6
		c-4.6,1.5-6.3,1.5-8.6-1.4c-2.3-2.9-3.7-6.6-2.5-10.5c0.3-1.2,1-2.3,1.9-3.2c10.8-7.1,7.2-18.1,7.6-28c0.1-1-0.2-2.1-0.6-3
		c-4.9-10-4.4-15.1,3.8-22.7c8.2-7.6,12.1-14.9,20.9-19.6c1.8-0.9,1.1-3,1.2-4.6c0.1-7.8,3.3-13.5,10.8-16.6
		c3.2-1.4,5.3-3.4,5.8-7.4s2.8-6.7,7-8c5.9-1.8,11.5-4.5,17.4-6.4c3.2-1,6.7-2.8,9.8-1.7c10.5,3.9,16.6-3.4,23.8-8.5
		c3.9-2.7,6.7-6.7,7.9-11.3c1.3-5.1,4.5-7.6,8.5-10.2c7.3-4.6,12.1-10.7,11-20.1c-0.3-2-0.5-3.7-2.4-4.8c-4.7-2.7-5.1-8.1-6.8-12.3
		c-1.7-4.2,3.7-5.8,5.7-8.8c-8-4.1-12.8,1.9-17.6,5.8c-7.9,6.4-11.6,6.2-16.7-2.8c-5.1-9-10-18.3-15-27.4c-1.4-2.7-3.6-4.2-6.3-5.7
		c-9.3-5.1-19.2-9.2-26.4-17.7c-7.4-8.6-17.3-14.6-28.3-17.3c-6.2-1.6-5.9-7.1-6.8-11.5c-0.6-3.7-1.4-7.4-2.4-11
		c-1-3.2-1.9-7.5,1.5-9.9c3.4-2.4,4.1-6.1,0.9-9.5c-4.5-4.9-2-11.3-3.8-16.8c-0.9-2.4-1.2-4.6-3.7-6.1s-5.2-4.9-3.6-9
		c1-2.6-0.7-4.1-2.3-5.2c-5.3-3.9-5.1-9.2-4.1-14.8c0.5-2.4,1.5-4.8,1.8-7.3s1.2-6.4-4.4-7.5c-7.9-1.7-12.8-14.8-8.8-22.5
		c6.2-11.9,10.2-24.5,13.2-37.5c1.4-5.8,0.3-11.9-3.2-16.7c-4-5.6-8.8-10.6-13.3-15.8c-1.4-1.6-2.8-1.3-4.4,0l-4.9,3.8
		c-3,2.1-5.9,5.7-9.9,3.5s-8.2-5.4-8.2-11.5c0.2-15.1,0.8-30,9.6-43.2c2.2-3.2,2.4-6.5-1.8-8.8c-6.3-3.4-5.5-10.5-7.3-15.9
		s-3.3-8.8-7-12.2c-8.9-8.6-12.4-18.2-6.4-30.3c2.5-5.3,4.2-10.9,5.1-16.6c1-5.1,1.4-10.5-2.5-15c-1.8-2.1-2.6-4.9-2.2-7.6
		c0.7-9.4,0.4-18.8,3.3-27.9c0.4-1.4,0.7-2.9-0.3-4.2c-5.7-7.4-3.6-14.8,0.2-22.1c3.8-7.3,6.3-17.4,13.6-23.6c3-2.5,5.4-4.8,3.5-9.3
		c-1.9-4.5,1.9-5.2,3.4-7.6s3.5-3.9,2.1-6.1c-1.4-2.2-4.2-1-6.3-0.3c-4.9,1.5-9.5,3.4-15,1.4s-9.4-6-8-14c0.5-3.1,0.6-6.1-2.2-7
		c-6.5-2.1-11.1-9.1-19.4-6.7c-4.1,1.2-9.3,1.4-11.7-3.6c-2.2-4.2-1.4-9.4,2.1-12.7c2-2.2,3.6-4.6,4.8-7.3c1.9-3.7,4.8-7,1.1-11.8
		c-2.8-3.3-2.4-8.3,0.9-11.1c0.1-0.1,0.2-0.2,0.3-0.3c4.4-3.5,9.4-2.7,14.1-0.4c1.9,1,3.5,2.4,4.7,4.2c4.7,7.7,12,5.8,19,5.5
		c1.7-0.1,2.3-1.5,3.3-2.6c6.4-6.7,15.7-6.8,21.9-0.2c2.7,2.7,11.8,1.7,13.7-1.6s3-5,8.9-6.1c-1.9-6.1-2.1-12.6-0.5-18.8
		c1.2-4.9,0.3-8.2-4.6-10.7c-4.9-2.5-9.5-4.5-11.5-10.1s-1.9-7.7,2.6-10.3s3.6-3.8-0.4-5.5s-8.8-4.2-10.8-9c-0.8-1.7-2.5-3.8-2-5.1
		c3.7-10.6-5.7-9.7-10.3-10.4c-9.9-1.5-14.5-8.7-19.4-15.4c-2.6-3.6-1.7-8.5,0.3-12.6c0.7-1.6,1.6-3.5-0.7-4.2
		c-2.3-0.7-2,1.6-2.5,2.8c-1.6,4.1-4.5,5.6-8.9,5.3c-6.9-0.4-13.6,0.6-20.1-4.6s-7.3-13-4.8-20.5c1.6-4.9,2.7-7.3-4.2-8
		c-15.3-1.5-23.6-11.7-28.2-25.5c-1.3-3.7-6.2-6.3-1.7-11.9c-5.2,1.2-5.7,4.2-7.1,6.6c-2.4,4-3,9.6-8.6,10.9
		c-9,2-15.3-5.4-12.1-14.7c3.9-11.2,8.5-22.1,12.9-33.1c2.9-7.3,5.8-14.7,9.2-21.8c1.8-3.8,3.7-8.5,9.7-5.4c1.4,0.8,2.7,0.3,2.6-1.3
		c-0.3-3.6,1-7.1,3.4-9.8c1-1.1-3.8-11-5.4-11.3c-1.6-0.3-2.2,1.1-2.9,2.5c-6.2,12.3-12.6,24.4-18.4,36.8c-1.4,3-3.8,5-5.4,7.6
		c-5,7.8-11.6,14.5-13,24.5c-1.4,10-9.1,18-19.3,21.9c-6.5,2.5-8.3,7.8-9.3,13.7c-0.5,3.3,0.3,5.5,4,7.4
		c7.9,4.1,13.9,11.2,16.7,19.6c1.8,5.4-0.9,9.6-6.7,10c-2.3,0.2-4.6-0.1-6.9,0.1s-7.5,0.8-7.3,6.3c0.1,3.8-3.3,5.2-6.3,6.1
		s-4.7,2.4-5,6.1c-0.5,5.5-5.9,7.8-9.2,11.4c-3.3,3.6-7.4,6.2,0.2,10c4.8,2.4,3.8,8,1.4,11.7c-5,7.6-8.9,15.1-7.5,24.5
		c0.5,2.8-1.5,4.5-4.1,5.6c-9.4,4-19,1-24.5-8.2c-3.6,4-7.7,6.4-13.2,5.8c-3.5-0.3-3.3,1.9-1.9,4c0.9,1.6,2.2,3,3.8,4.1
		c6.5,3.9,8.8,9.1,6.4,16.5c-0.8,2.4-0.3,4.3,2.5,5.5c5.9,2.5,7.7,7.2,5.1,13c-1.6,3.5-3.9,6.5-6.7,9.1c-2.4,2.3-4.9,3.5-8.4,1.6
		s-8-2.1-11.8,1.5s-8.4,6.2-12.3,9.6c-3.9,3.4-7.4,3.5-11,1.5c-3.6-2-8.4-2.3-12.8-2.2c-4.4,0.1-7.2-1.8-7.9-6.3
		c-0.4-2.6-1.6-5.2-4-5.9c-2.4-0.7-4,2.3-5.4,4.3c-4.1,5.8-10.4,8.2-16.6,10.7c-4.1,1.6-7.8,4-11,7c-5.3,5.3-8.5,6-13.9,0.8
		c-5.4-5.2-9.1-3.5-13.8,0.5c-8.1,7-10.9,6.6-21.2-2c-5.6-4.7-6.4-11.2-2.1-18.5c1.6-2.7,3.5-5.2,5.1-7.9c3.1-5.1,1.2-9-4.5-9.2
		c-3.5,0-8,0.9-9-3.6s-2-10.4,3.2-14.4c4.2-3.3,4.9-9.4,1.6-13.6c-0.5-0.6-1.1-1.2-1.7-1.7c-3.1-2.6-8.3-3.9-7.2-9.2
		s4.2-10.9,10.1-13.5c1.7-0.7,3.3-1.1,3.6-3.6c0.8-5.7-0.3-6.5-5.9-6.1c-4.1,0.1-8,1.8-10.9,4.8c-3.2,3.1-6.9,2.5-10.1-0.6
		c-1.5-1.4-1.9-3.2-2.6-4.9c-3.5-9.8-3.5-9.8-10.6-2.4c-1.4,1.5-2.8,3.6-5.1,3.2c-6.8-1-11.9,3.4-17.8,5.2c-1.7,0.5-2.1,1.6-2.9,2.8
		c-1.6,2.7-3.6,5.2-5.7,7.5c-2.8,2.8-6.7,1.3-9.9,2c-3.2,0.7,0.1,6.6-3.7,8.9c-3.8,2.3-13.4,0.9-16.1-4.1c-1.6-3-2.8-3.2-5.7-2.2
		s-3.9,2.7-3.8,5.6c0.1,2.9,2.2,3.4,4.6,3.5c4.2,0.2,5.8,3.3,6.5,6.7c0.7,4.1,1.2,8.2,1.5,12.4c0.4,5.7,0,10.4-7,12.8
		c-3.8,1.3-2.4,6.1-0.2,9.1c2.2,3,3.4,4,3.5,7.1c0.2,7.5-1.4,10.3-8.9,10.7c-5.6,0.4-6.8,2.9-6.3,7.6c0.3,2.5,0.7,5,1.2,7.4
		c2,8.9-1.5,15.1-10.4,18c-0.8,0.3-1.8,0.4-2.2,1c-4.6,5.6-9.6,7.2-15.6,2c-1.3-1-2.8-0.2-3.9,0.9l-5,4.9c-7.1,7-10.2,6.8-15.5-1.4
		c-1-1.7-2-2.8-3.8-1.9s-1.5,2.8-0.8,4.3s2.2,3.6,3.2,5.4c2.7,5.4,1.8,15.6-2.5,19.7s-2.5,4.8-0.8,7.5s2.6,4.3,3.8,6.5
		c4.3,7.3,1.2,12.5-7.4,12.8c-1.9,0.1-3.8,0.3-5.6,0.6c-3.7,0.8-5,3.4-6.8,6.9c-5.1,9.5-2.2,22.3-12.3,29.8c-2.3,1.7-4,3.5-7.1,2.1
		c-1.8-0.9-3.8-0.7-5.5,0.3c-3.6,2.3-6.9,2-9.6-1.1s-1.5-6.5-0.6-10.1c2.6-11,7.1-21.6,6.6-33.3c-0.2-4.5-0.6-8.6-2.8-12.7
		c-3.5-6.8,1.5-12.8,2.8-19.1c0.4-1.8,3.8-3.4,1.6-5.3c-2.2-1.9-2.9,1.7-4.5,2.4c-4.1,1.6-8,3.3-8.8,8.6c-0.2,1-2.5,2.3-4,2.6
		c-3.6,0.6-4.6,2.3-4.7,5.9c0,5.5-3.8,7.6-8.9,7.2c-5.1-0.4-6.7,0.4-5,5.9s-0.9,7.3-6,8.3c-6.9,1.4-9,8-10.7,14.7s-1,16-7.8,21.6
		c-0.9,0.9-2.1,1.5-3.3,1.8c-8.9,0.6-17,4.6-25.6,6.4c-4.5,1-6.1-3.7-8.8-6.1s-2.3-5.4-1-8.1c3.9-9,7.9-17.9,12.3-26.6
		c2.5-4.7,1.8-9.8,2.9-14.7c1.8-7.9,9-12.4,11.5-19.7s7.7-13.7,13.1-19.6c2-2.2,1.3-14.1-0.9-15.8s-2.9,0.2-3.8,1.6
		c-4.1,6.1-8.1,12.1-12.3,18.1c-1.4,2.1-2.9,4.3-5.7,4.5c-4.4,0.2-7.7,1.5-9.1,6.1c-0.4,1-1.3,1.7-2.3,1.9
		c-6.4,0.3-11.1,4.3-16.2,7.2c-3,1.7-6.1,1.8-8.5-1.3s-6.4-2.6-9.9-2.4s-7.2-0.8-9-4.3s-4.4-3.8-7.4-3.3c-6.8,1-11.8-1.9-15.9-7
		c-0.9-1.1-1.4-3.5-3.7-2.2c-1.6,0.7-2.6,2.3-2.5,4.1c0.1,3.4,0,6.9-3.4,8.8c-5.3,2.9-10.6,6-16.9,6.2c-2.8,0.1-4.7-2-4.8-4.8
		c-0.3-3.6-0.2-7.2,0.3-10.7c1.5-8.5-1-13.6-9.2-17.3c-6.5-2.9-13-5.8-15.5-13.4c-1.2-3.6-4.2-4.1-7.6-4.1
		c-9.8,0-18.7-8.3-19.5-17.8c0-0.4,0-0.8,0.1-1.2c0.4-1.9,3.8-4,1-5.2c-2.8-1.2-2.9,2.7-3.8,4.6c-2.9,6.3-7.6,7.8-13,3.6
		s-10.8-7.6-17.4-7.5c-8.1,0.2-10.3-5.4-12.2-11.1c-0.8-2.8-1.4-4.2-4.6-4.5c-4.9-0.5-7.9-2.9-8.5-8.8s-0.2-12.4-5-17.7
		c-2.5-2.8-1.8-7.4,1.2-10.4c5.7-5.5,6.2-9.9-0.7-15.4c-3.8-3.1-5.5-8.7-8.5-13s-13.2-7.5-17.7-4.3c-8.9,6.4-18.8,10.8-28.6,15.2
		c-9.8,4.4-15,14.7-21.1,23.3c-2.4,3.4-4.6,6.9-6.5,10.6c-1.9,3.6-5,5.1-8.3,7.1c-4.8,3-10.9,5.5-11.8,12.7
		c-0.3,3.3-3.1,5.9-6.4,5.8c-6,0-7.6,3.1-7.2,8.4c0.4,5.3-2.1,9.3-8.3,9.3c-1.7-0.1-3.4,0.8-4.2,2.3c-2,3.8-5.7,6.3-10,6.8
		c-2,0.2-3,2-4,3.6s-3.2,4.9-5.8,5.7c-4.5,1.3-4.2,3.6-2.4,6.9c3.1,5.6,1.9,10.9-1.2,16.1c-2.2,3.6-4.4,7.1-6.5,10.7
		c-3.3,5.4-6.9,6.2-11.9,2.5c-3.5-2.7-6.7-5.8-11.5-2c-1,0.8-3.7,0.7-4.8-0.2c-4.7-3.6-8.1-0.5-11.9,1.8s-10.1,6.7-15.7,8.9
		c-5.6,2.2-9.6-1.6-13.9-3.3s-10.3-3.3-15.3-5.3c-13.6-5.3-22.3-19.9-19.3-34.1c1.7-7.8,0.6-14-5.7-20.2
		c-22.4-22.1-43.1-45.7-64.6-68.5c-13.2-14.1-24.1-30.4-35.7-45.9c-3.8-5.1-7.8-8.8-14.5-9.6c-11.6-1.3-22.9-3.8-34.6-5
		c-18.3-1.7-35.7-7.8-52.3-15.7c-9.7-4.6-20.3-7.3-29.9-12.5c-1.3-0.7-3.3-0.2-4.9-0.3c-7.1-0.4-14.2,0.5-21.3-1.1
		c-5.3-1.1-9.7,2-13.7,5.2s-16.2,4.3-20.6,0c-7.2-7.2-14.6-14-23.2-19.6c-10.8-6.9-18-16.7-18.2-30.3c0-2.9-1.9-3.4-4.2-3.3
		c-16.5,0.7-32.9-3.5-49.4-0.1c-5.7,1.2-11.2-1.2-16.9-1.1v-12.6h71.8c8.8,0,13.2,3.7,12.3,12.6c-1.1,11.9,5.4,19.2,13.2,26.1
		c0.8,0.7,1.8,1.2,2.8,1.4c6,0.5,9.5,4.3,12.6,9.1c5.9,9,7.9,9.3,16.8,3.5c2.3-1.5,5-3.1,7.5-3.1c16.5,0.1,33.1-3.1,49.2,5.3
		c13,6.8,27.1,11.6,40.9,16.6c13.8,5,29,7,44,8.1c10.4,0.8,20.8,3.8,31,6.4c3.6,0.9,6,4.5,8.2,7.5c11.2,15.1,23.8,29.1,34.3,44.7
		c5.6,8.2,13.5,14.8,20.5,22.1c17.8,18.5,34.4,38.3,53.2,56c3.5,3.1,5.2,7.8,4.7,12.4c-0.3,6-0.2,12.2,0,18.2
		c0.1,9.4,4,14,13.1,16.6c2.5,0.7,5.1,1.7,7.6,2.6c6.8,2.6,13.4,4.3,20.5-1.3s13.2-7.8,21.3-7.2c2,0.1,3-1.4,4-2.6
		c3.9-4.7,7.2-3.6,11,0.4c1.5,1.6,2,6.6,5.5,3.9c3-2.2,4.1-6.1,2.9-9.6c-0.7-2-1.2-4-1.9-5.9c-2.2-5.9-0.1-11.6,5.2-14.5
		c10.2-5.9,19.5-13.3,27.6-21.9c3.1-3.3,2.9-9.1,4.9-13.6s5.5-7.4,9.4-8.2s7.3-3.8,10.8-5.9c12.6-7.8,21.6-18.9,28.1-32.1
		c5.2-10.6,15.4-14,24.6-19.2c7-4,14.9-6.5,21.4-11.4c2.1-1.6,4.4-1.2,6.7-1.2c3.9-0.1,8,0.6,11.9-0.1c9.7-1.8,14.6,3.7,18.8,11
		c2.4,4,3.3,9.3,10.8,8.6c4.5-0.4,6.3,5.6,4.9,9.9c-2.3,6.4,0.9,13.6-4.2,19.9c-1.8,2.1,0.9,7.6,0.5,11.4c-0.5,5.5,3.7,5.9,6.9,7.5
		c3.6,1.9,6,5.5,6.4,9.5c0.5,7.7,6.6,7.1,10.9,9c6.5,2.9,12.7,3.7,16-5.1c0.8-2.3,3.7-2.4,6.1-2.4c4.8,0.3,9.6,0.3,14.4,0
		c4.6-0.4,6.5,2.5,8.1,5.6s0,6.1-2.6,8.3l-0.9,0.9c-2.6,2.7-6.1,5.6-4.1,9.6c1.9,4.2,6.4,6.6,10.9,5.8c7.3-1.2,11.1,2.4,13.4,8.4
		c1.6,4.4,4.6,6.8,9,7.9c7.9,2.1,11.2,9.7,16.5,14.8c1.1,1.1,1.6,3.5,3.8,2.4c2.2-1.1,0.9-2.8,0.6-4.4c-1.2-7.2,7.2-14.7,14-11.9
		c4.5,1.8,9.2,3.9,13,7.4s5.3,5.9,2.4,10.3s-0.5,4.4,2.5,4.1c6.4-0.6,12,0.3,15.8,6.2c1,1.6,2.8,1.5,4.6,0.8s4.8-1.3,6.7,0
		c5.3,3.7,9.6,0.3,12.9-2.5c3.6-3.1,7.7-5.6,12-7.5c9.8-4.6,14.1-13.7,17.1-23c1.4-4.3,3.1-7.6,6.9-8.8s8.1-0.7,11.4,3.1
		c8.1,9.3,12,19.8,10.9,32.1c-0.4,4.8-4,7.7-6.9,10.8c-2.9,3.1-5.9,6.1-7.2,10.1c-1.9,6.2-5.2,11.9-9.8,16.5
		c-2.2,2.2-2.6,5.1-2.9,8.1c-0.7,8.7-4.8,16.2-8.1,24c-0.5,1.3-2.5,3.2,0.1,4s2.1-1.5,2.1-3s0.7-3.6,2.2-4.2
		c5.2-2.2,5.8-8.3,9.9-11.4c1.4-1,2-2.9,1.3-4.5c-1.9-5.9,1.2-8.7,6.5-9.7s6.5-2.3,3.6-7.4s1.1-10.4,8-10.8c3.8-0.2,5.3-1.3,5.1-5.1
		c-0.2-3.8,2.8-6.5,7.3-6.4s8.3,1,8.2-5.4c0-1.5,1.8-3.1,3.5-3.1c5,0,8-2.7,10.6-6.6c2.6-3.9,4.1-3.7,8-2.2
		c6.2,2.4,12.9,3.1,16.3,10.2c2.3,4.8,3.6,9.4-0.6,13.7s-4.6,12-3.7,18.8c1.7,11,1,22.2-2.2,32.9c-0.7,2.4-1.5,4.8-0.4,7.3
		c0.5,0.9,1.5,0.5,2.2,0c2.5-1.6,2.4-4.2,2.2-6.8c-0.2-2.6,0.2-5.7,2.6-8c2.4-2.3,2.5-5.6,2.6-8.8c0.2-9.5,2.2-11.9,11.4-13
		c3.9-0.4,3.9-1.7,2.2-4.8c-5.5-10.2-5-13,3.9-20.6c1.4-1.2,1.8-2.8,0.9-3.8c-0.9-1-2-6.5-6.1-7.4c-8.1-1.7-16.9-14.3-15.9-22.2
		c0.8-6.2,9.7-9.4,15.7-6.6c8.6,4,17.7,6.7,27.4,5.7c2.6-0.2,1.8-2.4,2.3-3.8c3.2-8,9.7-11.3,16.2-8c2.5,1.3,4.4,3,4.9,6.1
		c0.2,1.6-0.7,5.1,1.9,4c2.6-1.1,7.2-0.3,7-5.5s-2.5-10.6-4.5-15.6c-2.7-6.9,0.1-13.4,7.3-14.2c4.1-0.5,5-2.1,4.7-5.6
		c-1-7.4,1.6-14.8,6.9-20c3.7-3.8,2.5-6.6-2.7-7.4c-3.2-0.3-5.9-2.6-6.6-5.7c-1.6-5.7-1.6-11.6-1.4-17.5c0-1.7,0.4-3.5,1.9-4.4
		c7.5-4.4,14.6-10.4,24.1-8.6c4,0.8,4-0.8,4.3-3.7c0.4-5.9,4.2-8.5,9.3-5.9c3.3,1.6,4.8,2.1,6.6-1.8c1.8-3.9,5.5-4.6,9.7-3.6
		c6.2,1.4,17.8-3.8,21.5-8.7s6.1-6.4,11.8-4.6c5.7,1.8,11,2.5,15.2,8.2s9.8,1.6,14.2-0.3c9.9-4.4,17.3,0,17.3,10.9
		c0,4.6-0.2,9.2,0.1,13.8c0.3,4.6-1,8.8-6.1,10.2c-2.8,0.8-2.7,1.9-1.1,4c5.2,6.7,6.1,14.8,7,22.8c0.3,3.4,0,6.8,3.9,8.4
		c0.2,0,0.3,0.2,0.5,0.4c2.4,2.3,5.5,21.9,3.8,24.8c-0.8,1.5-2.2,2.5-3.9,2.9c-2.4,0.6-3.6,2.6-4.7,4.7c-1.1,2.1-1,3.3,0.6,4.5
		c1.6,1.2,3.2,0.6,4.5-0.6l6.5-6c4.1-3.5,8.3-3.5,12.4,0.2c4.1,3.7,8.4,5.1,13.2,0.5c1.8-1.8,4.7-2.7,7.2-3.6
		c6.3-2.3,11.7-5.7,15.1-11.6c5.9-10.3,21.5-5.9,26.2,2.5c3.5,6.3,13.7,8.4,19.5,4.2s8.9-7,13.5-10.2c2.2-1.6,2.6-2.6,0.8-5
		c-3.4-4.3-2.7-8.5,1.8-11.8s2.7-4.3,0.5-7.3c-4.8-6.7-11.1-12.8-10.5-22.1c0.2-6.1,5.3-10.8,11.4-10.6c2,0.1,3.9,0.7,5.5,1.7
		c2.9,1.8,4.9,1.1,7.3-0.9c9-7.6,18.3-5.5,24.2,5.4c-0.3-7.2,2.5-13.2,6.3-18.9c1.4-2.2-1.5-3.8-3.1-4.8c-3.3-2.1-5.4-5.1-7.8-8
		c-2.4-2.9-3.2-5.8-1.6-8.6c1.6-2.8,4.1-6.3,8.3-5.7c4.2,0.6,8.1-2.3,11.1-5.7c1.2-1.3,1.9-3.2,1-4.6c-4-6.1,1-8.6,4.8-10.4
		c2.4-1,4.4-2.8,5.6-5.1c3.1-6,7.8-9.1,14.8-8.3c1.6,0.1,3.2,0,4.8-0.2c-5.4-9.5-14.4-8.1-22.3-8.4c-5.6-0.2-9.2-2.3-11.2-7.3
		c-2.7-6.6,2-14.3,9.2-14.1c4.8,0.2,6.9-1.4,8.6-5.7c3.3-8.2,8.9-14.2,17.8-17.2c8.9-3,10.2-10,10.8-17.5c0.2-3.1,1.4-6.1,3.4-8.5
		c13.4-15.6,21.5-34.3,30.1-52.5c4.7-9.9,10.4-18.5,19.3-24.7c3.6-2.5,6-6.4,6.6-10.8c1.2-6.3,4.8-11,8.9-15.5
		c1.1-1.3,2.6-2.2,4.3-2.4c8.1-1.1,10.5,6.5,15.3,10.3s1.2,6,0,8.7c-3.6,7.8-7.5,15.4-11.4,22.9c-1.5,2.8-4.2,4.9-7.3,5.6
		c-3.5,0.9-3.8,2.8-2.1,5.6c3.7,5.8,3,11.8,1,17.9c-1.3,3.7,3.2,10.6,8.5,12.9c8.3,3.7,10.1,6.4,9.2,14.8c-0.6,5.2-3.7,8-8.5,6.1
		c-8.1-3-17.2-3.5-23.7-10.4c-2.2-2.4-4.5-2.3-5.8,1.8s-4.3,10.4-6.4,15.6c-2.1,5.2-1.5,6.8,3.8,6.3s8.7,1.8,12.4,3.5
		c3.7,1.7,8.3,6.6,6.1,12.9c-2.2,6.3-1.5,11.6,2.9,16.8c4.4,5.2,10.4,3.8,15.7,4.4c11.1,1.3,15.6,8.6,12,19.3
		c-1.3,3.7-3.8,8.2-0.4,12.3c1.6,1.9,3.6,3.1,6.1,2.4s2.1-3.2,2.2-5.1c0.3-8.3,11.3-20.3,19.2-20.9c9.6-0.7,15.9,7,12.6,16.3
		c-1.7,4.7-3,8.3,0.6,12.9c2.5,3.1,2.6,7.5-1.4,10.6s-2.6,5.1,0,6.9c2.6,1.8,8.2,5.7,13.4,3.5c5.2-2.2,8.9-2.6,12.8,1.2
		c3.9,3.8,7,11.4,4,16.3s-1.6,6,3,8.1c4.6,2.1,10.1,4.7,16.1,0.1c3.5-2.6,7.7,0.7,8.6,4.6c0.9,3.9,2.3,4.6,5.1,6.1
		c5.8,3.1,6.8,7.9,1.4,11.8c-11.5,8.6-11.4,20.4-11.1,32.6c0,0.9-0.1,2.1,0.4,2.4c6.7,5.2,3.6,12.1,3.4,18.5s-4.1,10-10.2,8.5
		c-4-0.9-6.1,0-7.6,3.3s-4.3,4.7-8,4.8c-7.6-0.2-14.9-2.7-21-7.3c-2.3-1.8-4-1.6-4.6,1.2c-1.3,6-4.9,6.5-9.9,5.1
		c-2.7-0.7-5.4-0.8-7.7,1.3c-4.1,3.6-8,2.8-11.5-1l-2.3-2.2c-4.6-4.5-4.9-4.4-6.9,1.7c-1.5,4.4-3.5,6.6,2.9,10.5
		c6.4,3.9,16.8,6.5,20.8,15.7c1.4,3.1,3.7,5.5,2.3,9.3s0.8,4.1,3.3,2.5c8.4-5.4,16.1-1.4,23.7,1.8c3.1,1.2,4.8,4.6,3.7,7.8
		c-0.7,2.4-1.7,4.7-2.3,7.1c-1.3,5.2-5.8,9.7-2.8,16.1c1.6,3.2,0.2,7-4.3,8.4c-4.8,1.5-8.7,5.1-10.5,9.8c-1.9,4.7-4.4,9-6.6,13.5
		c-1.1,2.2-1.9,5.1-0.7,6.6c6.4,7.8,0.7,15.8,0.3,23.4c-0.4,5.8,0.6,11.8-1.6,17.4c-0.5,1.5,0.9,2.7,1.8,3.9
		c6.1,8.4,5.4,16.9,1.5,26c-2.4,6.2-4.3,12.5-5.7,19c-1.2,4.4,0.2,9.1,3.7,12c6.6,5.5,11,13.2,12.4,21.7c0.6,3.8,2.8,6.5,6.7,8.3
		c8.1,3.8,8.9,7,4.5,14.7c-2.8,4.9-5.5,9.8-8.5,14.6s-2.6,13.3-2.7,20.1c-0.1,1.1,0.2,2.2,1.4,2.5c1.2,0.3,2.2-0.8,2.8-1.9
		c1.6-2.7,3.4-5.3,4.7-8.1c2.3-4.8,6.2-5.5,10.5-4.4s6.1,4.8,5.5,8.7c-1.4,9.2,3.7,14.7,9.1,21.2c7.1,8.7,11.6,18.4,8.3,31.4
		c-3.3,13-7,26-12.5,38.4c-1.1,2.6-2,5.4,2.6,5.8c4.6,0.4,7.7-1.6,10.1,2.8c2.4,4.4,1.7,9.8,0.7,14.7c-0.6,3.3-1.7,6.4-1.8,9.8
		s1.8,7.9,4.1,11.8c5.4,9,12.1,17.9,11.1,29.4c-0.4,5.3,1,6.9,6.5,4.1c7.3-3.8,17,1.7,18.5,9.9c0.8,4-3.2,8.7-8.2,9.2
		s-9.7,6-15.4,7.5c-3,0.8,0.7,11.7,4.7,12.7c8.8,2.2,15.8,6.8,21.9,13.5c8.5,9.4,19.2,15.9,30.7,21c5.9,2.6,8.9,7.8,11.2,13
		c2.3,5.2,6.4,10.3,8.6,16c0.5,1.9,2.3,3.3,4.3,3.1c2.2-0.2,3.9-1.8,4.3-3.9c0.3-1.4,0.8-2.8,1.5-4.1c2.4-3.6,3-9.4,9.5-8.1
		s10.2,2.2,11.5,8.7c0.7,3.6,4.5,4.6,7.2,4.8c5,0.3,8.6,2.3,9.4,6.7c0.6,4.3-1.2,8.5-4.8,10.9c-3.7,2.6-4.9,4.2-0.5,7.5
		c4.4,3.3,2.6,9.1,2.2,13.6c-1.1,12.6-5.9,23.4-17.8,29.7c-1.9,1-3.2,2.8-3.6,4.9c-1,6.8-5.6,10.9-10.9,14.5c-2,1.5-3.9,3.2-5.6,5.1
		c-7.7,7-15,13.2-27.1,8.4c-6.3-2.5-12.9,3.5-19.6,5.2c-1.5,0.3-2,2-2,3.5c0.2,5.6-3.2,8.2-7.8,10.1s-7.4,4-7.9,9.3
		s-4.1,11.4-10.3,15.2c-6.2,3.8-12.1,10.9-17,17.6c-1.4,1.9-1,3.3,0.9,4.7c3.7,2.4,3.6,5.7,1.9,9.3c-2.2,4.6-2.4,10-0.7,14.8
		c1.5,4.4,2.5,8.2-0.8,12.8c5.2-0.2,8.3,1.9,10.4,5.7c0.3,0.5,0.8,1.4,1.2,1.3c9-0.3,11.3,8.2,16.7,12.6s4.4,8.7-0.4,12.6
		c-6.8,5.5-6.8,5.6-0.4,11.3c6.4,5.7,7.7,11.8,11.2,17.8s-0.9,11.1-8.9,16.7c-1.5,1-5.1,1-3.5,4c1.6,3,3.3,0.1,5.2-0.5
		s5.9-1.4,8.4,1.8s5.5,3,7-1.7s6.7-8.4,11-11.5c2-1.4,5.1-0.8,7.5,1.2c6.4,5.3,12.2,11.8,21.9,9.8c1.1-0.1,2.1,0.4,2.8,1.2
		c6.3,6.8,12.8,5.6,19.4,0.5c2.4-1.8,5.9-2.1,3.3-7.1c-1.5-3.2,3.3-5.7,6.2-7.6s9.8-3.8,8.8-11.1c-0.4-2.4,2.8-4,5.6-3.7
		c4.6,0.3,7.3-1.1,10.6-5.3c3.3-4.2,12.3-6.8,19.6-5.8c3.5,0.5,4.4-0.1,5.5-3.5c1.1-3.4,1.5-10,5.7-13.5c1.9-1.6,1.4-3.3-0.3-4.7
		c-4.4-3.4-6-8.2-7.6-13.3c-2.3-7.1-8.5-11.7-13-17.4c-1.3-1.6-3.6-2.7-3.8-4.9c-0.4-8-6.3-13.4-9.4-20.2c-1.2-2.7-2.8-5.1-1.5-8.2
		s-0.4-2.9-1.9-4.1c-2.3-1.8-4.4-3.8-6.4-5.9c-4.2-4.4-4.9-9.2-0.4-13.8c2.3-2.5,2.7-5.3,3.3-8.5c1.1-5.9,4.5-11.4,4.1-17.7
		c8.3-2.5,6.7-14.8,16.3-16.3c2.7-0.4,4.2-10.9,2-15c-3.3-6.1-3.8-11.4,2.2-16.1c1.9-1.5,0.7-3.1,0-4.9c-2.7-6.4-0.7-10.2,5.9-12.5
		c3.4-1.2,6.7-2.3,10-3.7s9.7-3.1,8.7-10.4c-0.3-2.7,3-5.6,3.2-8.6c0.3-4.8,1.1-9.8-1.7-14.6c-2.8-4.8-2.3-8.8,2.1-12.4
		c4.4-3.6,8.4-3.2,13.4-2.1c10.3,2.2,20.7,4.8,31.4,2.6c3.6-0.7,5-4.3,7.3-6.6s6.8-4.8,10.8-1.2c2.1,1.9,3.7,1.4,5.2-0.5
		c4.4-5.7,9.5-6.6,16.9-6s15.4-0.3,23.1-0.6c4.4-0.3,6.7,1.2,9.5,5.2c4,5.8,10.6,9.8,13.3,17c0.5,1.4,1.8,0.9,2.6,0.5
		c3.7-1.8,7.6-2.8,10.2-6.7c4.1-6.2,7.5-7,14.4-4.1c2.8,1.2,5.3,2.2,8.4,0.8s4.1-2.8,2.1-5.7s-2.1-5.1,0-7.5s4.8-3.7,8.4-2.4
		s6.7-0.3,9.5,2.2c0.7,0.7,1.8,0.7,2.5,0c0.1-0.1,0.2-0.2,0.3-0.3c0.7-0.9,0.6-2.1-0.1-2.9c-3.1-4.4-4-9-3.5-14.6s-4.3-7.3-6.9-10.9
		c-1.4-2.1-3-4-4.7-5.8c-3.4-3.2-4.2-7.1-2.4-10.9s5.5-6.1,10.4-5.6c3.8,0.2,7.5,0.3,11.3,0.1c1.5,0,3-0.4,3.5-2.1s-0.7-2.2-1.5-3.2
		l-0.4-0.4c-3-3.4-8.4-6.4-5.5-11.5s8-9.1,15.3-8.5c4,0.4,7.5-2.3,8.9-6.5s3.1-9,4.6-13.5c0.2-0.7,0.6-2,0.2-2.3
		c-4.5-4.2-5.3-9.9-7.4-15.2c-1.2-3.3-6.2-4.1-9.9-2.6c-9.5,3.9-9.8,4.1-14.8-4.4c-2.1-3.8-3.5-5.1-7.3-1.7
		c-6.3,5.7-14.1,3.5-16-4.7s0.4-15,4.8-21.2c2.4-3.5,6.9-4.5,11.1-5.2s8.2-0.8,10.9,3.7c1.1,1.8,3.5,1.2,5.3,0.4
		c5.3-2.5,11.2-3.6,17-3.1c2.4,0.2,3.8-0.5,4.2-3.3c1.4-9.2,9.2-14.4,18.5-12.9c10.9,1.9,14.3,0.3,17.9-9.7s8.8-18.4,16.7-25.3
		c3-2.6,3.8-4.8,1.3-8.5c-1.8-2.8-3-5.9-3.7-9.2c-1.2-5,1.9-10.1,7-11.3c1.1-0.3,2.3-0.3,3.4-0.2c1.4,0.2,2.8,0.8,4.3,1.1
		c7.4,1.6,15,1.8,22.5,2c2.4,0,5.1-3.3,7.3-2.9c6.9,1.4,11.8-0.2,15.6-6.4c1.3-2.1,4.6-1.4,7.1-1.5c8.5-0.2,17.2,1.4,25.3-2.6
		c1.1-0.6,2.7-0.7,3.3-1.6c5.3-6.9,11.6-4.3,17.5-1.5c2.6,1.2,4.2,1.5,6.7-0.1c2.4-1.4,5.2-2,7.9-1.7c7.2,1.1,13.8-2.5,20.9-3.1
		c4.7-0.3,9-5.3,11.6-9.7s4.6-9.8,6.7-14.8c0.5-1.1,1.3-2.7,0.9-3.5c-3.6-7.5-4-15.6-6.1-23.4c-1.2-4.5-0.8-9.4-3.3-13.8
		c-4-7.2-9.5-13.1-14.6-19.5c-2-2.6-3.7-5.1-3.4-8.5c0.8-9.6-1.9-18.4-5.6-27.1c-1.2-2.9,0.5-4.2,2.1-5.9s4-3.4,7.2-2.3
		c10.5,3.7,17,10.6,17.7,22.2c0.2,6.1,2.9,11.8,7.5,15.8c7.3,6.9,15.5,13.6,20.4,22.1c6.1,10.7,12.7,20.2,23.3,26.6
		c2,1.2,1.6,3.7,1.6,5.8c0,8.6-0.1,17.2,0,25.8c0.1,5.8,1.8,6.4,6.8,3.7c13.7-7.3,27.4-6.3,40.9,0.3c2.6,1.3,5.1,2.9,7.5,4.6
		c2,1.3,3.5,0.7,5-0.8s1-2.7,0.1-4.4c-3-5.2-6.5-10.2-1.9-16.5c2.9-4,5.9-4.7,9.5-1.8c6.5,5.5,13.2,11,18.9,17.5
		c2.3,2.7,3.9,5.9,4.5,9.4c0.3,3,2.6,5.5,5.6,6.1c3.3,0.8,5-1.2,6.5-3.7c2.9-5.2,8.2-6.2,13.2-7.2s7-0.9,9.7-3.6
		c0.9-1.2,2.4-1.8,3.9-1.6c8.1,1.5,15.5-3,23.4-2.6c1.7,0.1,3.5-0.1,3.7-2.4c0.3-4.6,3.1-8.2,7-8.4c5.1-0.4,10.1,2.1,12.8,6.5
		c0.4,0.7,0.6,1.5,1.4,3.3c4.3-8.3,10.5-5.6,16.3-3.8c3.2,0.8,5.4,3.7,5.3,7c0.2,2.5,0.2,5.1,0,7.6c-1.3,11.2,5.6,18.1,12.8,25
		l0.4,0.4c11.9,3,18.5,14.2,29.2,19s18.1,9.3,28.8,8.7c2.9-0.1,5.7,0.9,7.9,2.8c8,6.2,18.1,6.8,27.3,9.7c4.3,1.4,8.8,2.5,13,4.1
		c5.9,2.3,6,8,6.5,13.2c0.2,2.2,0.5,4.1,2.8,5s4.2,0.6,5.8-1.1c5.3-6,13-7.3,19.9-10c14.8-5.8,29.8-11.6,44.9-16.7 M3135.4,2018.4
		c-1.3-0.1-2.3,0.1-2.4,1.5s1,1.8,2.1,1.8c3.5,0.1,6.9,0,10.1,2.2c1.5,1,2.6-0.8,3-2.2s-1-2.3-2.5-2.4
		C3142.2,2019.2,3138.6,2019.8,3135.4,2018.4L3135.4,2018.4z M3053.3,2033.5c0.2,2-0.4,4.5,2.8,4.5c1.5,0.1,3.5-0.8,2.8-2.3
		s-1.3-5.3-4.1-5.6S3053.6,2032.2,3053.3,2033.5L3053.3,2033.5z"/>
		<path class="st0" d="M1123.7,954.5l-1.3,1.2C1122.2,954.7,1122.6,954.2,1123.7,954.5z"/>
		<path class="st0" d="M3135.4,2018.4c3.2,1.4,6.8,0.8,10.3,0.9c1.5,0.1,3.2,0.1,2.5,2.4s-1.5,3.2-3,2.2c-3.2-2.2-6.6-2.1-10.1-2.2
		c-1.1,0-2.1-0.5-2.1-1.8S3134.1,2018.3,3135.4,2018.4z"/>
		<path class="st0" d="M3053.3,2033.5c0.3-1.3-0.3-3.7,1.5-3.4s3,3.6,4.1,5.6s-1.3,2.4-2.8,2.3
		C3052.9,2038,3053.5,2035.5,3053.3,2033.5z"/>
	</g>
	<g id="Dot">
		<circle cx="1172.2" cy="1246.6" r="25" fill="none" stroke="#fa000e" stroke-width="7" style="animation-play-state: running; animation-delay: 0s;">
			<animate attributeName="r" repeatCount="indefinite" dur="0.9615384615384615s" values="0;30" keyTimes="0;1" keySplines="0 0.2 0.8 1" calcMode="spline" begin="0s" style="animation-play-state: running; animation-delay: 0s;"></animate>
			<animate attributeName="opacity" repeatCount="indefinite" dur="0.9615384615384615s" values="3;0" keyTimes="0;1" keySplines="0.2 0 0.8 1" calcMode="spline" begin="0s" style="animation-play-state: running; animation-delay: 0s;"></animate>
		</circle>
		<circle cx="1172.2" cy="1246.6" r="25" fill="none" stroke="#003c8d" stroke-width="7" style="animation-play-state: running; animation-delay: 0s;">
			<animate attributeName="r" repeatCount="indefinite" dur="0.9615384615384615s" values="0;30" keyTimes="0;1" keySplines="0 0.2 0.8 1" calcMode="spline" begin="-0.4807692307692307s" style="animation-play-state: running; animation-delay: 0s;"></animate>
			<animate attributeName="opacity" repeatCount="indefinite" dur="0.9615384615384615s" values="3;0" keyTimes="0;1" keySplines="0.2 0 0.8 1" calcMode="spline" begin="-0.4807692307692307s" style="animation-play-state: running; animation-delay: 0s;"></animate>
		</circle>
		<circle cx="1797.8" cy="1380.8" r="25" fill="none" stroke="#fa000e" stroke-width="7" style="animation-play-state: running; animation-delay: 0s;">
			<animate attributeName="r" repeatCount="indefinite" dur="0.9615384615384615s" values="0;30" keyTimes="0;1" keySplines="0 0.2 0.8 1" calcMode="spline" begin="0s" style="animation-play-state: running; animation-delay: 0s;"></animate>
			<animate attributeName="opacity" repeatCount="indefinite" dur="0.9615384615384615s" values="3;0" keyTimes="0;1" keySplines="0.2 0 0.8 1" calcMode="spline" begin="0s" style="animation-play-state: running; animation-delay: 0s;"></animate>
		</circle>
		<circle cx="1797.8" cy="1380.8" r="25" fill="none" stroke="#003c8d" stroke-width="7" style="animation-play-state: running; animation-delay: 0s;">
			<animate attributeName="r" repeatCount="indefinite" dur="0.9615384615384615s" values="0;30" keyTimes="0;1" keySplines="0 0.2 0.8 1" calcMode="spline" begin="-0.4807692307692307s" style="animation-play-state: running; animation-delay: 0s;"></animate>
			<animate attributeName="opacity" repeatCount="indefinite" dur="0.9615384615384615s" values="3;0" keyTimes="0;1" keySplines="0.2 0 0.8 1" calcMode="spline" begin="-0.4807692307692307s" style="animation-play-state: running; animation-delay: 0s;"></animate>
		</circle>
		<circle cx="2320.1" cy="1424.0" r="25" fill="none" stroke="#fa000e" stroke-width="7" style="animation-play-state: running; animation-delay: 0s;">
			<animate attributeName="r" repeatCount="indefinite" dur="0.9615384615384615s" values="0;30" keyTimes="0;1" keySplines="0 0.2 0.8 1" calcMode="spline" begin="0s" style="animation-play-state: running; animation-delay: 0s;"></animate>
			<animate attributeName="opacity" repeatCount="indefinite" dur="0.9615384615384615s" values="3;0" keyTimes="0;1" keySplines="0.2 0 0.8 1" calcMode="spline" begin="0s" style="animation-play-state: running; animation-delay: 0s;"></animate>
		</circle>
		<circle cx="2320.1" cy="1424.0" r="25" fill="none" stroke="#003c8d" stroke-width="7" style="animation-play-state: running; animation-delay: 0s;">
			<animate attributeName="r" repeatCount="indefinite" dur="0.9615384615384615s" values="0;30" keyTimes="0;1" keySplines="0 0.2 0.8 1" calcMode="spline" begin="-0.4807692307692307s" style="animation-play-state: running; animation-delay: 0s;"></animate>
			<animate attributeName="opacity" repeatCount="indefinite" dur="0.9615384615384615s" values="3;0" keyTimes="0;1" keySplines="0.2 0 0.8 1" calcMode="spline" begin="-0.4807692307692307s" style="animation-play-state: running; animation-delay: 0s;"></animate>
		</circle>
		<circle cx="2604.4" cy="1173.5" r="25" fill="none" stroke="#fa000e" stroke-width="7" style="animation-play-state: running; animation-delay: 0s;">
			<animate attributeName="r" repeatCount="indefinite" dur="0.9615384615384615s" values="0;30" keyTimes="0;1" keySplines="0 0.2 0.8 1" calcMode="spline" begin="0s" style="animation-play-state: running; animation-delay: 0s;"></animate>
			<animate attributeName="opacity" repeatCount="indefinite" dur="0.9615384615384615s" values="3;0" keyTimes="0;1" keySplines="0.2 0 0.8 1" calcMode="spline" begin="0s" style="animation-play-state: running; animation-delay: 0s;"></animate>
		</circle>
		<circle cx="2604.4" cy="1173.5" r="25" fill="none" stroke="#003c8d" stroke-width="7" style="animation-play-state: running; animation-delay: 0s;">
			<animate attributeName="r" repeatCount="indefinite" dur="0.9615384615384615s" values="0;30" keyTimes="0;1" keySplines="0 0.2 0.8 1" calcMode="spline" begin="-0.4807692307692307s" style="animation-play-state: running; animation-delay: 0s;"></animate>
			<animate attributeName="opacity" repeatCount="indefinite" dur="0.9615384615384615s" values="3;0" keyTimes="0;1" keySplines="0.2 0 0.8 1" calcMode="spline" begin="-0.4807692307692307s" style="animation-play-state: running; animation-delay: 0s;"></animate>
		</circle>
		<circle cx="2666.4" cy="1596.8" r="25" fill="none" stroke="#fa000e" stroke-width="7" style="animation-play-state: running; animation-delay: 0s;">
			<animate attributeName="r" repeatCount="indefinite" dur="0.9615384615384615s" values="0;30" keyTimes="0;1" keySplines="0 0.2 0.8 1" calcMode="spline" begin="0s" style="animation-play-state: running; animation-delay: 0s;"></animate>
			<animate attributeName="opacity" repeatCount="indefinite" dur="0.9615384615384615s" values="3;0" keyTimes="0;1" keySplines="0.2 0 0.8 1" calcMode="spline" begin="0s" style="animation-play-state: running; animation-delay: 0s;"></animate>
		</circle>
		<circle cx="2666.4" cy="1596.8" r="25" fill="none" stroke="#003c8d" stroke-width="7" style="animation-play-state: running; animation-delay: 0s;">
			<animate attributeName="r" repeatCount="indefinite" dur="0.9615384615384615s" values="0;30" keyTimes="0;1" keySplines="0 0.2 0.8 1" calcMode="spline" begin="-0.4807692307692307s" style="animation-play-state: running; animation-delay: 0s;"></animate>
			<animate attributeName="opacity" repeatCount="indefinite" dur="0.9615384615384615s" values="3;0" keyTimes="0;1" keySplines="0.2 0 0.8 1" calcMode="spline" begin="-0.4807692307692307s" style="animation-play-state: running; animation-delay: 0s;"></animate>
		</circle>
		<circle cx="3741.9" cy="1849.8" r="25" fill="none" stroke="#fa000e" stroke-width="7" style="animation-play-state: running; animation-delay: 0s;">
			<animate attributeName="r" repeatCount="indefinite" dur="0.9615384615384615s" values="0;30" keyTimes="0;1" keySplines="0 0.2 0.8 1" calcMode="spline" begin="0s" style="animation-play-state: running; animation-delay: 0s;"></animate>
			<animate attributeName="opacity" repeatCount="indefinite" dur="0.9615384615384615s" values="3;0" keyTimes="0;1" keySplines="0.2 0 0.8 1" calcMode="spline" begin="0s" style="animation-play-state: running; animation-delay: 0s;"></animate>
		</circle>
		<circle cx="3741.9" cy="1849.8" r="25" fill="none" stroke="#003c8d" stroke-width="7" style="animation-play-state: running; animation-delay: 0s;">
			<animate attributeName="r" repeatCount="indefinite" dur="0.9615384615384615s" values="0;30" keyTimes="0;1" keySplines="0 0.2 0.8 1" calcMode="spline" begin="-0.4807692307692307s" style="animation-play-state: running; animation-delay: 0s;"></animate>
			<animate attributeName="opacity" repeatCount="indefinite" dur="0.9615384615384615s" values="3;0" keyTimes="0;1" keySplines="0.2 0 0.8 1" calcMode="spline" begin="-0.4807692307692307s" style="animation-play-state: running; animation-delay: 0s;"></animate>
		</circle>

	</g>
	<g>
		<g>
			<line class="st3" x1="1177.5" y1="1546.8" x2="1294.5" y2="1546.8"/>
			<g>
				<path d="M1180.9,1581.9l-52.7-30.3c-3.7-2.1-3.7-7.4,0-9.5l52.7-30.4c3.6-2.1,8.2,0.5,8.2,4.7v60.8
				C1189.1,1581.4,1184.6,1584,1180.9,1581.9z"/>
			</g>
		</g>
	</g>
	<text transform="matrix(1 0 0 1 1127.854 1722.5022)" class="st4 st5">Silchar, Assam</text>
	<text transform="matrix(1 0 0 1 3442.5374 1971.1971)" class="st4 st5">Kangpokpi</text>
	<text transform="matrix(1 0 0 1 2726.4832 1649.1573)" class="st4 st5">Noney</text>
	<text transform="matrix(1 0 0 1 2681.2312 1202.5898)" class="st4 st5">Tamenglong</text>
	<text transform="matrix(1 0 0 1 2271.3816 1556.3291)" class="st4 st5">Barak</text>
	<text transform="matrix(1 0 0 1 1602.9365 1312.3711)" class="st4 st5">New Kaiphondai</text>
	<text transform="matrix(1 0 0 1 1135.4241 1166.6172)" class="st4 st5">Leingangpokpi</text>
	<g>
		<g>
			<line class="st3" x1="3775.2" y1="1503.1" x2="3658.2" y2="1503.1"/>
			<g>
				<path d="M3771.8,1468.1l52.7,30.3c3.7,2.1,3.7,7.4,0,9.5l-52.7,30.4c-3.6,2.1-8.2-0.5-8.2-4.7v-60.8
				C3763.6,1468.6,3768.2,1466,3771.8,1468.1z"/>
			</g>
		</g>
	</g>
	<text transform="matrix(1 0 0 1 3228.7051 1383.2332)" class="st4 st5">Imphal, Manipur</text>
</svg>
